<svg xmlns="http://www.w3.org/2000/svg" width="2560" height="1297" style="cursor: move;"><g transform="translate(-107.11488139798382,-112.94382841270817) scale(1.148698354997035)"><path class="link" marker-end="" d="M1120,338.5, 1300,658.5" style="stroke-width: 0.5; stroke-opacity: 1; stroke: rgb(80, 80, 80);"></path><path class="link" marker-end="" d="M1120,378.5, 1300,658.5" style="stroke-width: 0.5; stroke-opacity: 1; stroke: rgb(80, 80, 80);"></path><path class="link" marker-end="" d="M1120,418.5, 1300,658.5" style="stroke-width: 0.5; stroke-opacity: 1; stroke: rgb(80, 80, 80);"></path><path class="link" marker-end="" d="M1120,458.5, 1300,658.5" style="stroke-width: 0.5; stroke-opacity: 1; stroke: rgb(80, 80, 80);"></path><path class="link" marker-end="" d="M1120,498.5, 1300,658.5" style="stroke-width: 0.5; stroke-opacity: 1; stroke: rgb(80, 80, 80);"></path><path class="link" marker-end="" d="M1120,538.5, 1300,658.5" style="stroke-width: 0.5; stroke-opacity: 1; stroke: rgb(80, 80, 80);"></path><path class="link" marker-end="" d="M1120,578.5, 1300,658.5" style="stroke-width: 0.5; stroke-opacity: 1; stroke: rgb(80, 80, 80);"></path><path class="link" marker-end="" d="M1120,618.5, 1300,658.5" style="stroke-width: 0.5; stroke-opacity: 1; stroke: rgb(80, 80, 80);"></path><path class="link" marker-end="" d="M1300,618.5, 1480,498.5" style="stroke-width: 0.5; stroke-opacity: 1; stroke: rgb(80, 80, 80);"></path><path class="link" marker-end="" d="M1300,618.5, 1480,538.5" style="stroke-width: 0.5; stroke-opacity: 1; stroke: rgb(80, 80, 80);"></path><path class="link" marker-end="" d="M1300,618.5, 1480,578.5" style="stroke-width: 0.5; stroke-opacity: 1; stroke: rgb(80, 80, 80);"></path><path class="link" marker-end="" d="M1300,618.5, 1480,618.5" style="stroke-width: 0.5; stroke-opacity: 1; stroke: rgb(80, 80, 80);"></path><path class="link" marker-end="" d="M1300,618.5, 1480,658.5" style="stroke-width: 0.5; stroke-opacity: 1; stroke: rgb(80, 80, 80);"></path><path class="link" marker-end="" d="M1300,618.5, 1480,698.5" style="stroke-width: 0.5; stroke-opacity: 1; stroke: rgb(80, 80, 80);"></path><path class="link" marker-end="" d="M1300,618.5, 1480,738.5" style="stroke-width: 0.5; stroke-opacity: 1; stroke: rgb(80, 80, 80);"></path><path class="link" marker-end="" d="M1300,618.5, 1480,778.5" style="stroke-width: 0.5; stroke-opacity: 1; stroke: rgb(80, 80, 80);"></path><path class="link" marker-end="" d="M1300,658.5, 1480,498.5" style="stroke-width: 0.5; stroke-opacity: 1; stroke: rgb(80, 80, 80);"></path><path class="link" marker-end="" d="M1300,658.5, 1480,538.5" style="stroke-width: 0.5; stroke-opacity: 1; stroke: rgb(80, 80, 80);"></path><path class="link" marker-end="" d="M1300,658.5, 1480,578.5" style="stroke-width: 0.5; stroke-opacity: 1; stroke: rgb(80, 80, 80);"></path><path class="link" marker-end="" d="M1300,658.5, 1480,618.5" style="stroke-width: 0.5; stroke-opacity: 1; stroke: rgb(80, 80, 80);"></path><path class="link" marker-end="" d="M1300,658.5, 1480,658.5" style="stroke-width: 0.5; stroke-opacity: 1; stroke: rgb(80, 80, 80);"></path><path class="link" marker-end="" d="M1300,658.5, 1480,698.5" style="stroke-width: 0.5; stroke-opacity: 1; stroke: rgb(80, 80, 80);"></path><path class="link" marker-end="" d="M1300,658.5, 1480,738.5" style="stroke-width: 0.5; stroke-opacity: 1; stroke: rgb(80, 80, 80);"></path><path class="link" marker-end="" d="M1300,658.5, 1480,778.5" style="stroke-width: 0.5; stroke-opacity: 1; stroke: rgb(80, 80, 80);"></path><path class="link" marker-end="" d="M1120,658.5, 1300,658.5" style="stroke-width: 0.5; stroke-opacity: 1; stroke: rgb(80, 80, 80);"></path><path class="link" marker-end="" d="M1120,698.5, 1300,658.5" style="stroke-width: 0.5; stroke-opacity: 1; stroke: rgb(80, 80, 80);"></path><path class="link" marker-end="" d="M1120,738.5, 1300,658.5" style="stroke-width: 0.5; stroke-opacity: 1; stroke: rgb(80, 80, 80);"></path><path class="link" marker-end="" d="M1120,778.5, 1300,658.5" style="stroke-width: 0.5; stroke-opacity: 1; stroke: rgb(80, 80, 80);"></path><path class="link" marker-end="" d="M1120,818.5, 1300,658.5" style="stroke-width: 0.5; stroke-opacity: 1; stroke: rgb(80, 80, 80);"></path><path class="link" marker-end="" d="M1120,858.5, 1300,658.5" style="stroke-width: 0.5; stroke-opacity: 1; stroke: rgb(80, 80, 80);"></path><path class="link" marker-end="" d="M1120,898.5, 1300,658.5" style="stroke-width: 0.5; stroke-opacity: 1; stroke: rgb(80, 80, 80);"></path><path class="link" marker-end="" d="M1120,938.5, 1300,658.5" style="stroke-width: 0.5; stroke-opacity: 1; stroke: rgb(80, 80, 80);"></path><path class="link" marker-end="" d="M1120,338.5, 1300,618.5" style="stroke-width: 0.5; stroke-opacity: 1; stroke: rgb(80, 80, 80);"></path><path class="link" marker-end="" d="M1120,378.5, 1300,618.5" style="stroke-width: 0.5; stroke-opacity: 1; stroke: rgb(80, 80, 80);"></path><path class="link" marker-end="" d="M1120,418.5, 1300,618.5" style="stroke-width: 0.5; stroke-opacity: 1; stroke: rgb(80, 80, 80);"></path><path class="link" marker-end="" d="M1120,458.5, 1300,618.5" style="stroke-width: 0.5; stroke-opacity: 1; stroke: rgb(80, 80, 80);"></path><path class="link" marker-end="" d="M1120,498.5, 1300,618.5" style="stroke-width: 0.5; stroke-opacity: 1; stroke: rgb(80, 80, 80);"></path><path class="link" marker-end="" d="M1120,538.5, 1300,618.5" style="stroke-width: 0.5; stroke-opacity: 1; stroke: rgb(80, 80, 80);"></path><path class="link" marker-end="" d="M1120,578.5, 1300,618.5" style="stroke-width: 0.5; stroke-opacity: 1; stroke: rgb(80, 80, 80);"></path><path class="link" marker-end="" d="M1120,618.5, 1300,618.5" style="stroke-width: 0.5; stroke-opacity: 1; stroke: rgb(80, 80, 80);"></path><path class="link" marker-end="" d="M1120,658.5, 1300,618.5" style="stroke-width: 0.5; stroke-opacity: 1; stroke: rgb(80, 80, 80);"></path><path class="link" marker-end="" d="M1120,698.5, 1300,618.5" style="stroke-width: 0.5; stroke-opacity: 1; stroke: rgb(80, 80, 80);"></path><path class="link" marker-end="" d="M1120,738.5, 1300,618.5" style="stroke-width: 0.5; stroke-opacity: 1; stroke: rgb(80, 80, 80);"></path><path class="link" marker-end="" d="M1120,778.5, 1300,618.5" style="stroke-width: 0.5; stroke-opacity: 1; stroke: rgb(80, 80, 80);"></path><path class="link" marker-end="" d="M1120,818.5, 1300,618.5" style="stroke-width: 0.5; stroke-opacity: 1; stroke: rgb(80, 80, 80);"></path><path class="link" marker-end="" d="M1120,858.5, 1300,618.5" style="stroke-width: 0.5; stroke-opacity: 1; stroke: rgb(80, 80, 80);"></path><path class="link" marker-end="" d="M1120,898.5, 1300,618.5" style="stroke-width: 0.5; stroke-opacity: 1; stroke: rgb(80, 80, 80);"></path><path class="link" marker-end="" d="M1120,938.5, 1300,618.5" style="stroke-width: 0.5; stroke-opacity: 1; stroke: rgb(80, 80, 80);"></path><circle r="12" class="node" id="0_0" cx="1120" cy="338.5" style="fill: rgb(255, 0, 0); stroke: rgb(0, 0, 0);"></circle><circle r="12" class="node" id="0_1" cx="1120" cy="378.5" style="fill: rgb(255, 0, 0); stroke: rgb(0, 0, 0);"></circle><circle r="12" class="node" id="0_2" cx="1120" cy="418.5" style="fill: rgb(255, 0, 0); stroke: rgb(0, 0, 0);"></circle><circle r="12" class="node" id="0_3" cx="1120" cy="458.5" style="fill: rgb(255, 0, 0); stroke: rgb(0, 0, 0);"></circle><circle r="12" class="node" id="0_4" cx="1120" cy="498.5" style="fill: rgb(255, 0, 0); stroke: rgb(0, 0, 0);"></circle><circle r="12" class="node" id="0_5" cx="1120" cy="538.5" style="fill: rgb(255, 0, 0); stroke: rgb(0, 0, 0);"></circle><circle r="12" class="node" id="0_6" cx="1120" cy="578.5" style="fill: rgb(255, 0, 0); stroke: rgb(0, 0, 0);"></circle><circle r="12" class="node" id="0_7" cx="1120" cy="618.5" style="fill: rgb(255, 0, 0); stroke: rgb(0, 0, 0);"></circle><circle r="12" class="node" id="0_8" cx="1120" cy="658.5" style="fill: rgb(255, 0, 0); stroke: rgb(0, 0, 0);"></circle><circle r="12" class="node" id="0_9" cx="1120" cy="698.5" style="fill: rgb(255, 0, 0); stroke: rgb(0, 0, 0);"></circle><circle r="12" class="node" id="0_10" cx="1120" cy="738.5" style="fill: rgb(255, 0, 0); stroke: rgb(0, 0, 0);"></circle><circle r="12" class="node" id="0_11" cx="1120" cy="778.5" style="fill: rgb(255, 0, 0); stroke: rgb(0, 0, 0);"></circle><circle r="12" class="node" id="0_12" cx="1120" cy="818.5" style="fill: rgb(255, 0, 0); stroke: rgb(0, 0, 0);"></circle><circle r="12" class="node" id="0_13" cx="1120" cy="858.5" style="fill: rgb(255, 0, 0); stroke: rgb(0, 0, 0);"></circle><circle r="12" class="node" id="0_14" cx="1120" cy="898.5" style="fill: rgb(255, 0, 0); stroke: rgb(0, 0, 0);"></circle><circle r="12" class="node" id="0_15" cx="1120" cy="938.5" style="fill: rgb(255, 0, 0); stroke: rgb(0, 0, 0);"></circle><circle r="12" class="node" id="1_0" cx="1300" cy="618.5" style="fill: rgb(255, 0, 0); stroke: rgb(0, 0, 0);"></circle><circle r="12" class="node" id="1_1" cx="1300" cy="658.5" style="fill: rgb(255, 0, 0); stroke: rgb(0, 0, 0);"></circle><circle r="12" class="node" id="2_0" cx="1480" cy="498.5" style="fill: rgb(255, 0, 0); stroke: rgb(0, 0, 0);"></circle><circle r="12" class="node" id="2_1" cx="1480" cy="538.5" style="fill: rgb(255, 0, 0); stroke: rgb(0, 0, 0);"></circle><circle r="12" class="node" id="2_2" cx="1480" cy="578.5" style="fill: rgb(255, 0, 0); stroke: rgb(0, 0, 0);"></circle><circle r="12" class="node" id="2_3" cx="1480" cy="618.5" style="fill: rgb(255, 0, 0); stroke: rgb(0, 0, 0);"></circle><circle r="12" class="node" id="2_4" cx="1480" cy="658.5" style="fill: rgb(255, 0, 0); stroke: rgb(0, 0, 0);"></circle><circle r="12" class="node" id="2_5" cx="1480" cy="698.5" style="fill: rgb(255, 0, 0); stroke: rgb(0, 0, 0);"></circle><circle r="12" class="node" id="2_6" cx="1480" cy="738.5" style="fill: rgb(255, 0, 0); stroke: rgb(0, 0, 0);"></circle><circle r="12" class="node" id="2_7" cx="1480" cy="778.5" style="fill: rgb(255, 0, 0); stroke: rgb(0, 0, 0);"></circle><text class="text" dy=".35em" x="1085" y="978.5" style="font-size: 12px;">Input Layer ∈ ℝ¹⁶</text><text class="text" dy=".35em" x="1265" y="978.5" style="font-size: 12px;">Hidden Layer ∈ ℝ²</text><text class="text" dy=".35em" x="1445" y="978.5" style="font-size: 12px;">Output Layer ∈ ℝ⁸</text></g><defs><marker id="arrow" viewBox="0 -5 10 10" markerWidth="7" markerHeight="7" orient="auto" refX="45.599999999999994"><path d="M0,-5L10,0L0,5" style="stroke: rgb(80, 80, 80); fill: none;"></path></marker></defs></svg>