<svg xmlns="http://www.w3.org/2000/svg" width="2560" height="1241" style="cursor: move;"><g transform="translate(-107.11488139798382,-112.94382841270817) scale(1.148698354997035)"><path class="link" marker-end="" d="M1120,454.5, 1304,630.5" style="stroke-width: 0.5; stroke-opacity: 1; stroke: rgb(80, 80, 80);"></path><path class="link" marker-end="" d="M1120,498.5, 1304,630.5" style="stroke-width: 0.5; stroke-opacity: 1; stroke: rgb(80, 80, 80);"></path><path class="link" marker-end="" d="M1120,542.5, 1304,630.5" style="stroke-width: 0.5; stroke-opacity: 1; stroke: rgb(80, 80, 80);"></path><path class="link" marker-end="" d="M1120,586.5, 1304,630.5" style="stroke-width: 0.5; stroke-opacity: 1; stroke: rgb(80, 80, 80);"></path><path class="link" marker-end="" d="M1120,630.5, 1304,630.5" style="stroke-width: 0.5; stroke-opacity: 1; stroke: rgb(80, 80, 80);"></path><path class="link" marker-end="" d="M1120,674.5, 1304,630.5" style="stroke-width: 0.5; stroke-opacity: 1; stroke: rgb(80, 80, 80);"></path><path class="link" marker-end="" d="M1120,718.5, 1304,630.5" style="stroke-width: 0.5; stroke-opacity: 1; stroke: rgb(80, 80, 80);"></path><path class="link" marker-end="" d="M1120,762.5, 1304,630.5" style="stroke-width: 0.5; stroke-opacity: 1; stroke: rgb(80, 80, 80);"></path><path class="link" marker-end="" d="M1304,586.5, 1488,278.5" style="stroke-width: 0.5; stroke-opacity: 1; stroke: rgb(80, 80, 80);"></path><path class="link" marker-end="" d="M1304,586.5, 1488,322.5" style="stroke-width: 0.5; stroke-opacity: 1; stroke: rgb(80, 80, 80);"></path><path class="link" marker-end="" d="M1304,586.5, 1488,366.5" style="stroke-width: 0.5; stroke-opacity: 1; stroke: rgb(80, 80, 80);"></path><path class="link" marker-end="" d="M1304,586.5, 1488,410.5" style="stroke-width: 0.5; stroke-opacity: 1; stroke: rgb(80, 80, 80);"></path><path class="link" marker-end="" d="M1304,586.5, 1488,454.5" style="stroke-width: 0.5; stroke-opacity: 1; stroke: rgb(80, 80, 80);"></path><path class="link" marker-end="" d="M1304,586.5, 1488,498.5" style="stroke-width: 0.5; stroke-opacity: 1; stroke: rgb(80, 80, 80);"></path><path class="link" marker-end="" d="M1304,586.5, 1488,542.5" style="stroke-width: 0.5; stroke-opacity: 1; stroke: rgb(80, 80, 80);"></path><path class="link" marker-end="" d="M1304,586.5, 1488,586.5" style="stroke-width: 0.5; stroke-opacity: 1; stroke: rgb(80, 80, 80);"></path><path class="link" marker-end="" d="M1304,630.5, 1488,278.5" style="stroke-width: 0.5; stroke-opacity: 1; stroke: rgb(80, 80, 80);"></path><path class="link" marker-end="" d="M1304,630.5, 1488,322.5" style="stroke-width: 0.5; stroke-opacity: 1; stroke: rgb(80, 80, 80);"></path><path class="link" marker-end="" d="M1304,630.5, 1488,366.5" style="stroke-width: 0.5; stroke-opacity: 1; stroke: rgb(80, 80, 80);"></path><path class="link" marker-end="" d="M1304,630.5, 1488,410.5" style="stroke-width: 0.5; stroke-opacity: 1; stroke: rgb(80, 80, 80);"></path><path class="link" marker-end="" d="M1304,630.5, 1488,454.5" style="stroke-width: 0.5; stroke-opacity: 1; stroke: rgb(80, 80, 80);"></path><path class="link" marker-end="" d="M1304,630.5, 1488,498.5" style="stroke-width: 0.5; stroke-opacity: 1; stroke: rgb(80, 80, 80);"></path><path class="link" marker-end="" d="M1304,630.5, 1488,542.5" style="stroke-width: 0.5; stroke-opacity: 1; stroke: rgb(80, 80, 80);"></path><path class="link" marker-end="" d="M1304,630.5, 1488,586.5" style="stroke-width: 0.5; stroke-opacity: 1; stroke: rgb(80, 80, 80);"></path><path class="link" marker-end="" d="M1120,454.5, 1304,586.5" style="stroke-width: 0.5; stroke-opacity: 1; stroke: rgb(80, 80, 80);"></path><path class="link" marker-end="" d="M1120,498.5, 1304,586.5" style="stroke-width: 0.5; stroke-opacity: 1; stroke: rgb(80, 80, 80);"></path><path class="link" marker-end="" d="M1120,542.5, 1304,586.5" style="stroke-width: 0.5; stroke-opacity: 1; stroke: rgb(80, 80, 80);"></path><path class="link" marker-end="" d="M1120,586.5, 1304,586.5" style="stroke-width: 0.5; stroke-opacity: 1; stroke: rgb(80, 80, 80);"></path><path class="link" marker-end="" d="M1120,630.5, 1304,586.5" style="stroke-width: 0.5; stroke-opacity: 1; stroke: rgb(80, 80, 80);"></path><path class="link" marker-end="" d="M1120,674.5, 1304,586.5" style="stroke-width: 0.5; stroke-opacity: 1; stroke: rgb(80, 80, 80);"></path><path class="link" marker-end="" d="M1120,718.5, 1304,586.5" style="stroke-width: 0.5; stroke-opacity: 1; stroke: rgb(80, 80, 80);"></path><path class="link" marker-end="" d="M1120,762.5, 1304,586.5" style="stroke-width: 0.5; stroke-opacity: 1; stroke: rgb(80, 80, 80);"></path><path class="link" marker-end="" d="M1304,586.5, 1488,630.5" style="stroke-width: 0.5; stroke-opacity: 1; stroke: rgb(80, 80, 80);"></path><path class="link" marker-end="" d="M1304,586.5, 1488,674.5" style="stroke-width: 0.5; stroke-opacity: 1; stroke: rgb(80, 80, 80);"></path><path class="link" marker-end="" d="M1304,586.5, 1488,718.5" style="stroke-width: 0.5; stroke-opacity: 1; stroke: rgb(80, 80, 80);"></path><path class="link" marker-end="" d="M1304,586.5, 1488,762.5" style="stroke-width: 0.5; stroke-opacity: 1; stroke: rgb(80, 80, 80);"></path><path class="link" marker-end="" d="M1304,586.5, 1488,806.5" style="stroke-width: 0.5; stroke-opacity: 1; stroke: rgb(80, 80, 80);"></path><path class="link" marker-end="" d="M1304,586.5, 1488,850.5" style="stroke-width: 0.5; stroke-opacity: 1; stroke: rgb(80, 80, 80);"></path><path class="link" marker-end="" d="M1304,586.5, 1488,894.5" style="stroke-width: 0.5; stroke-opacity: 1; stroke: rgb(80, 80, 80);"></path><path class="link" marker-end="" d="M1304,586.5, 1488,938.5" style="stroke-width: 0.5; stroke-opacity: 1; stroke: rgb(80, 80, 80);"></path><path class="link" marker-end="" d="M1304,630.5, 1488,630.5" style="stroke-width: 0.5; stroke-opacity: 1; stroke: rgb(80, 80, 80);"></path><path class="link" marker-end="" d="M1304,630.5, 1488,674.5" style="stroke-width: 0.5; stroke-opacity: 1; stroke: rgb(80, 80, 80);"></path><path class="link" marker-end="" d="M1304,630.5, 1488,718.5" style="stroke-width: 0.5; stroke-opacity: 1; stroke: rgb(80, 80, 80);"></path><path class="link" marker-end="" d="M1304,630.5, 1488,762.5" style="stroke-width: 0.5; stroke-opacity: 1; stroke: rgb(80, 80, 80);"></path><path class="link" marker-end="" d="M1304,630.5, 1488,806.5" style="stroke-width: 0.5; stroke-opacity: 1; stroke: rgb(80, 80, 80);"></path><path class="link" marker-end="" d="M1304,630.5, 1488,850.5" style="stroke-width: 0.5; stroke-opacity: 1; stroke: rgb(80, 80, 80);"></path><path class="link" marker-end="" d="M1304,630.5, 1488,894.5" style="stroke-width: 0.5; stroke-opacity: 1; stroke: rgb(80, 80, 80);"></path><path class="link" marker-end="" d="M1304,630.5, 1488,938.5" style="stroke-width: 0.5; stroke-opacity: 1; stroke: rgb(80, 80, 80);"></path><circle r="12" class="node" id="0_0" cx="1120" cy="454.5" style="fill: rgb(255, 0, 0); stroke: rgb(0, 0, 0);"></circle><circle r="12" class="node" id="0_1" cx="1120" cy="498.5" style="fill: rgb(255, 0, 0); stroke: rgb(0, 0, 0);"></circle><circle r="12" class="node" id="0_2" cx="1120" cy="542.5" style="fill: rgb(255, 0, 0); stroke: rgb(0, 0, 0);"></circle><circle r="12" class="node" id="0_3" cx="1120" cy="586.5" style="fill: rgb(255, 0, 0); stroke: rgb(0, 0, 0);"></circle><circle r="12" class="node" id="0_4" cx="1120" cy="630.5" style="fill: rgb(255, 0, 0); stroke: rgb(0, 0, 0);"></circle><circle r="12" class="node" id="0_5" cx="1120" cy="674.5" style="fill: rgb(255, 0, 0); stroke: rgb(0, 0, 0);"></circle><circle r="12" class="node" id="0_6" cx="1120" cy="718.5" style="fill: rgb(255, 0, 0); stroke: rgb(0, 0, 0);"></circle><circle r="12" class="node" id="0_7" cx="1120" cy="762.5" style="fill: rgb(255, 0, 0); stroke: rgb(0, 0, 0);"></circle><circle r="12" class="node" id="1_0" cx="1304" cy="586.5" style="fill: rgb(255, 0, 0); stroke: rgb(0, 0, 0);"></circle><circle r="12" class="node" id="1_1" cx="1304" cy="630.5" style="fill: rgb(255, 0, 0); stroke: rgb(0, 0, 0);"></circle><circle r="12" class="node" id="2_0" cx="1488" cy="278.5" style="fill: rgb(255, 0, 0); stroke: rgb(0, 0, 0);"></circle><circle r="12" class="node" id="2_1" cx="1488" cy="322.5" style="fill: rgb(255, 0, 0); stroke: rgb(0, 0, 0);"></circle><circle r="12" class="node" id="2_2" cx="1488" cy="366.5" style="fill: rgb(255, 0, 0); stroke: rgb(0, 0, 0);"></circle><circle r="12" class="node" id="2_3" cx="1488" cy="410.5" style="fill: rgb(255, 0, 0); stroke: rgb(0, 0, 0);"></circle><circle r="12" class="node" id="2_4" cx="1488" cy="454.5" style="fill: rgb(255, 0, 0); stroke: rgb(0, 0, 0);"></circle><circle r="12" class="node" id="2_5" cx="1488" cy="498.5" style="fill: rgb(255, 0, 0); stroke: rgb(0, 0, 0);"></circle><circle r="12" class="node" id="2_6" cx="1488" cy="542.5" style="fill: rgb(255, 0, 0); stroke: rgb(0, 0, 0);"></circle><circle r="12" class="node" id="2_7" cx="1488" cy="586.5" style="fill: rgb(255, 0, 0); stroke: rgb(0, 0, 0);"></circle><text class="text" dy=".35em" x="1085" y="982.5" style="font-size: 12px;">Input Layer ∈ ℝ⁸</text><text class="text" dy=".35em" x="1269" y="982.5" style="font-size: 12px;">Hidden Layer ∈ ℝ²</text><text class="text" dy=".35em" x="1453" y="982.5" style="font-size: 12px;">Output Layer ∈ ℝ¹⁶</text><circle r="12" class="node" id="2_8" cx="1488" cy="630.5" style="fill: rgb(255, 0, 0); stroke: rgb(0, 0, 0);"></circle><circle r="12" class="node" id="2_9" cx="1488" cy="674.5" style="fill: rgb(255, 0, 0); stroke: rgb(0, 0, 0);"></circle><circle r="12" class="node" id="2_10" cx="1488" cy="718.5" style="fill: rgb(255, 0, 0); stroke: rgb(0, 0, 0);"></circle><circle r="12" class="node" id="2_11" cx="1488" cy="762.5" style="fill: rgb(255, 0, 0); stroke: rgb(0, 0, 0);"></circle><circle r="12" class="node" id="2_12" cx="1488" cy="806.5" style="fill: rgb(255, 0, 0); stroke: rgb(0, 0, 0);"></circle><circle r="12" class="node" id="2_13" cx="1488" cy="850.5" style="fill: rgb(255, 0, 0); stroke: rgb(0, 0, 0);"></circle><circle r="12" class="node" id="2_14" cx="1488" cy="894.5" style="fill: rgb(255, 0, 0); stroke: rgb(0, 0, 0);"></circle><circle r="12" class="node" id="2_15" cx="1488" cy="938.5" style="fill: rgb(255, 0, 0); stroke: rgb(0, 0, 0);"></circle></g><defs><marker id="arrow" viewBox="0 -5 10 10" markerWidth="7" markerHeight="7" orient="auto" refX="45.599999999999994"><path d="M0,-5L10,0L0,5" style="stroke: rgb(80, 80, 80); fill: none;"></path></marker></defs></svg>