<?xml version="1.0" standalone="no"?>
<!DOCTYPE svg PUBLIC "-//W3C//DTD SVG 20010904//EN"
 "http://www.w3.org/TR/2001/REC-SVG-20010904/DTD/svg10.dtd">
<svg version="1.0" xmlns="http://www.w3.org/2000/svg"
 width="640.000000pt" height="640.000000pt" viewBox="0 0 640.000000 640.000000"
 preserveAspectRatio="xMidYMid meet">
<metadata>
Created by potrace 1.14, written by Peter Selinger 2001-2017
</metadata>
<g transform="translate(0.000000,640.000000) scale(0.100000,-0.100000)"
fill="#000000" stroke="none">
<path d="M1040 5044 c-80 -7 -146 -13 -147 -13 -2 -1 -3 -52 -3 -115 0 -96 3
-115 16 -120 9 -3 147 -3 308 0 439 9 793 -15 937 -65 30 -10 79 -24 109 -31
30 -7 60 -16 65 -20 6 -4 28 -13 50 -20 55 -17 188 -85 235 -119 l39 -28 -52
-7 c-29 -3 -191 -6 -360 -6 -197 0 -306 -4 -302 -10 7 -12 3228 -12 3265 0 14
4 -470 8 -1075 9 -1066 1 -1240 4 -1229 22 3 5 16 9 30 9 30 0 31 20 1 41
-319 231 -665 384 -1012 449 -207 38 -593 49 -875 24z"/>
<path d="M1082 4750 c-40 -24 -64 -77 -56 -119 4 -16 22 -47 40 -68 l34 -38 0
-1201 0 -1201 -26 -24 c-45 -42 -57 -75 -43 -117 25 -78 116 -109 175 -59 54
46 40 176 -21 191 l-25 6 0 1209 0 1209 29 24 c73 62 69 153 -9 193 -39 20
-59 19 -98 -5z"/>
<path d="M4888 4403 c-4 -66 0 -95 13 -87 12 7 12 131 0 138 -5 4 -11 -20 -13
-51z"/>
<path d="M4976 4445 c-18 -18 -18 -21 -10 -52 4 -16 14 -23 30 -23 27 0 28 -3
13 -31 -7 -14 -16 -18 -31 -13 -15 4 -19 2 -16 -7 3 -8 16 -15 31 -17 35 -4
49 24 45 96 -3 49 -6 57 -24 60 -12 2 -29 -4 -38 -13z m42 -27 c-5 -32 -28
-35 -28 -4 0 17 5 26 16 26 10 0 14 -7 12 -22z"/>
<path d="M4633 4424 c-3 -8 -1 -20 6 -27 8 -8 11 -7 11 6 0 21 19 22 26 2 8
-19 -12 -44 -43 -56 -42 -16 -25 -29 37 -29 33 0 60 4 60 10 0 6 -14 10 -32
10 -29 0 -30 1 -15 18 31 34 16 82 -25 82 -10 0 -21 -7 -25 -16z"/>
<path d="M4762 4428 c-20 -25 -18 -70 4 -92 21 -21 40 -20 64 4 16 16 18 24 9
50 -16 43 -56 63 -77 38z m58 -54 c0 -21 -4 -25 -22 -22 -23 3 -34 28 -24 54
9 24 46 -2 46 -32z"/>
<path d="M2142 4347 l-52 -53 0 -537 c0 -615 -12 -552 105 -552 114 0 105 -23
105 264 l0 249 23 6 c33 8 429 9 450 1 16 -7 17 -28 17 -256 0 -284 -7 -264
90 -263 99 1 90 -52 90 498 0 470 1 486 19 496 25 13 221 13 241 0 13 -8 15
-76 18 -494 l3 -485 33 -9 c18 -6 44 -8 57 -6 13 2 40 6 59 9 l35 5 0 485 c0
421 2 487 15 495 22 14 203 13 218 -2 9 -9 12 -133 12 -495 0 -433 2 -484 16
-490 23 -9 125 -9 157 0 l27 7 0 233 c0 180 3 237 13 252 13 16 32 18 217 19
152 1 207 -2 221 -12 18 -12 19 -30 19 -251 0 -209 2 -240 16 -245 20 -8 128
-8 148 0 14 6 16 63 16 552 l0 546 -42 43 -42 43 -1126 0 -1126 0 -52 -53z
m623 -161 c12 -18 15 -47 13 -127 l-3 -104 -247 -3 -248 -2 0 118 c0 78 4 122
12 130 9 9 75 12 235 12 l223 0 15 -24z m1573 12 c8 -8 12 -53 12 -135 l0
-123 -235 0 -235 0 0 129 c0 94 3 131 13 134 6 3 107 6 223 6 151 1 213 -2
222 -11z"/>
<path d="M1290 4211 c-88 -6 -95 -8 -108 -31 -15 -29 -9 -114 9 -136 14 -17
259 -21 259 -4 0 6 -45 10 -115 10 -103 0 -115 2 -125 19 -12 23 -13 91 -2
108 5 8 45 13 117 15 67 2 109 7 108 13 -3 12 -23 13 -143 6z"/>
<path d="M1207 3759 c-18 -13 -27 -30 -27 -49 0 -35 44 -90 71 -90 11 0 43 23
71 50 56 55 79 61 102 28 20 -28 20 -43 1 -62 -11 -11 -12 -17 -4 -22 19 -11
41 27 35 60 -16 79 -73 87 -140 21 -51 -50 -77 -56 -100 -23 -21 30 -20 47 6
75 28 30 18 39 -15 12z"/>
<path d="M1224 3282 c-25 -16 -35 -52 -25 -88 22 -79 73 -84 141 -13 31 32 55
49 67 47 24 -4 49 -56 34 -71 -14 -14 -14 -27 -1 -27 6 0 15 11 21 24 9 18 7
30 -5 54 -31 60 -71 60 -122 -1 -44 -52 -69 -62 -94 -37 -28 28 -24 80 7 96
13 6 20 14 16 17 -8 9 -25 9 -39 -1z"/>
<path d="M1930 3110 c0 -7 279 -11 813 -12 446 -1 762 -4 702 -5 l-111 -4 -28
-151 c-32 -171 -56 -249 -120 -397 -65 -149 -99 -200 -214 -322 -111 -116
-203 -184 -352 -259 -103 -52 -161 -73 -310 -111 -107 -28 -160 -35 -395 -59
-120 -12 -536 -12 -655 0 -52 6 -134 13 -182 17 l-88 6 0 -186 0 -185 33 -11
c29 -9 116 -22 249 -35 26 -3 50 -1 53 4 3 6 -1 7 -9 4 -9 -3 -16 -1 -16 5 0
5 -13 26 -30 44 -16 19 -30 37 -30 41 0 13 29 5 54 -15 l27 -21 25 23 c13 12
24 25 24 29 0 3 -18 16 -40 29 -22 12 -40 28 -40 35 0 6 13 27 29 46 l29 35
56 -27 c81 -40 69 -58 -15 -23 -11 4 -22 -1 -33 -17 -16 -22 -15 -23 24 -46
22 -13 40 -30 40 -37 0 -7 -12 -26 -27 -43 -62 -67 -62 -68 40 -77 129 -12
624 -14 639 -2 9 6 8 7 -5 3 -13 -4 -33 8 -66 39 -51 47 -64 45 -54 -8 5 -25
3 -27 -26 -27 l-31 0 0 121 c0 119 0 120 23 117 17 -2 23 -11 25 -35 4 -43 20
-41 62 7 21 25 43 40 57 40 13 0 23 -3 23 -7 0 -4 -26 -33 -57 -65 l-57 -57
69 -66 69 -66 107 15 c59 9 122 16 140 16 25 0 29 3 20 14 -6 7 -19 53 -29
102 l-18 89 -45 -3 c-24 -2 -41 -1 -37 3 11 11 151 45 183 44 l30 -1 -30 -10
c-16 -5 -35 -11 -41 -13 -8 -2 -5 -32 11 -97 20 -85 21 -94 6 -105 -14 -11
-12 -12 11 -13 15 0 30 5 33 11 4 6 13 8 21 5 7 -3 16 -1 19 5 4 5 10 7 14 4
5 -2 44 7 87 20 43 14 88 25 98 25 28 0 10 13 -53 38 -76 31 -83 30 -75 -14 7
-36 -4 -53 -32 -54 -11 0 -72 207 -63 213 11 9 152 57 168 57 13 0 23 -16 36
-55 11 -30 17 -56 14 -58 -2 -2 -19 -12 -37 -24 l-33 -20 62 -22 c46 -17 58
-26 48 -33 -8 -5 -9 -8 -4 -6 63 25 75 31 75 40 0 5 -26 52 -57 105 -54 91
-56 96 -38 109 10 8 21 14 24 14 3 0 28 -39 56 -85 27 -47 53 -85 58 -85 5 0
22 9 38 21 l29 20 -25 47 c-13 26 -33 61 -44 77 -26 38 -26 52 0 60 23 8 30 0
93 -105 21 -36 40 -66 41 -68 4 -5 99 69 103 79 2 5 -21 42 -50 83 l-55 74
-24 -19 c-48 -37 -42 -18 11 37 53 53 110 93 110 77 0 -5 -14 -20 -31 -34
l-32 -26 64 -76 63 -77 26 23 c69 61 71 50 -14 137 -42 43 -76 82 -76 87 0 5
5 14 12 21 9 9 20 6 46 -15 l35 -26 28 34 29 34 -40 36 c-40 35 -41 35 -21 53
20 18 22 17 106 -54 47 -40 88 -76 91 -81 10 -16 20 -9 51 34 45 62 76 121 67
124 -5 2 -55 30 -111 64 l-103 60 35 69 c19 38 39 71 45 75 15 9 12 -1 -16
-56 -14 -28 -24 -52 -22 -53 12 -10 100 -48 102 -45 2 2 13 23 25 46 20 40 41
63 41 46 0 -4 -12 -30 -26 -57 -14 -26 -24 -49 -22 -50 23 -17 78 -46 87 -46
10 0 61 89 61 107 0 5 -21 19 -47 32 -96 49 -163 93 -163 106 0 16 35 113 48
133 7 10 20 9 66 -9 60 -22 64 -28 41 -81 -4 -12 -3 -18 5 -18 16 0 120 59
120 68 0 4 -24 16 -52 26 -127 45 -158 58 -158 69 0 7 10 45 21 85 18 57 26
72 41 72 17 0 143 -29 201 -46 12 -4 17 0 17 14 0 18 -11 21 -105 32 -123 15
-117 8 -113 145 l3 90 123 3 c104 2 123 5 118 17 -5 13 89 15 739 15 490 0
745 3 745 10 0 7 -553 10 -1640 10 -1087 0 -1640 -3 -1640 -10z m-305 -1490
c15 -6 6 -9 -32 -9 l-53 -1 0 -45 0 -45 45 0 c25 0 45 -4 45 -10 0 -5 -20 -10
-44 -10 -46 0 -56 -11 -56 -67 0 -21 5 -23 54 -23 30 0 58 -4 61 -10 4 -6 -25
-10 -81 -10 l-87 0 6 111 c4 60 9 114 12 120 8 11 103 11 130 -1z m210 0 c4
-6 -13 -10 -44 -10 l-51 0 0 -50 0 -50 53 -2 52 -1 -55 -6 -55 -6 -3 -42 -3
-43 64 0 c48 0 66 -4 71 -15 6 -17 -11 -18 -116 -8 l-68 6 0 113 c0 109 1 113
23 117 44 9 126 7 132 -3z"/>
<path d="M3850 3040 c-27 -27 -25 -52 6 -81 36 -32 55 -79 43 -101 -14 -26
-48 -22 -61 7 -13 30 -38 33 -38 6 0 -46 87 -68 130 -33 30 24 22 59 -26 112
-29 31 -35 45 -30 65 8 30 31 33 46 5 14 -26 30 -26 30 0 0 13 -10 24 -26 30
-37 14 -52 12 -74 -10z"/>
<path d="M3548 3012 c-29 -2 -48 -8 -48 -15 0 -9 33 -12 115 -13 105 0 115 1
115 18 0 19 -22 20 -182 10z"/>
<path d="M4150 2990 c0 -5 7 -10 15 -10 8 0 15 5 15 10 0 6 -7 10 -15 10 -8 0
-15 -4 -15 -10z"/>
<path d="M4568 2968 c-9 -7 -24 -26 -32 -43 l-15 -30 -12 33 c-12 36 -50 52
-80 33 -10 -6 -25 -11 -33 -11 -10 0 -15 -15 -18 -50 -4 -62 -1 -70 23 -70 16
0 19 7 19 43 0 44 24 92 41 82 5 -4 9 -35 9 -71 0 -58 2 -64 21 -64 12 0 23 8
26 20 5 18 7 18 29 3 26 -17 94 -11 94 8 0 7 -12 8 -30 4 -26 -6 -30 -3 -36
21 -4 15 -3 39 3 53 7 21 14 25 37 23 19 -2 27 1 24 10 -6 18 -49 22 -70 6z"/>
<path d="M4705 2968 c-47 -27 -61 -91 -27 -121 21 -19 122 -24 122 -7 0 6 -18
10 -40 10 -29 0 -42 5 -50 20 -9 17 -7 20 17 25 47 10 73 24 80 41 13 35 -58
57 -102 32z m65 -33 c-13 -16 -58 -26 -66 -14 -2 5 5 18 16 29 17 17 24 18 41
10 15 -9 18 -15 9 -25z"/>
<path d="M3999 2931 c-30 -31 -38 -68 -17 -89 21 -21 108 -13 108 10 0 5 -15
6 -34 3 -25 -5 -35 -3 -39 9 -15 38 34 97 53 65 11 -17 24 -5 17 16 -10 25
-56 18 -88 -14z"/>
<path d="M4265 2948 c-11 -6 -26 -18 -32 -26 -45 -55 44 -122 103 -77 18 13
16 14 -21 12 -34 -2 -40 1 -40 17 0 14 10 22 32 28 41 11 51 27 28 45 -22 16
-43 16 -70 1z m45 -18 c0 -5 -9 -10 -21 -10 -11 0 -17 5 -14 10 3 6 13 10 21
10 8 0 14 -4 14 -10z"/>
<path d="M3502 2919 c3 -25 -6 -23 168 -39 43 -4 50 -1 50 25 0 25 -1 25 -79
25 -43 0 -93 3 -111 6 -29 6 -31 5 -28 -17z"/>
<path d="M4146 2924 c-3 -9 -6 -33 -6 -55 0 -32 3 -39 20 -39 18 0 20 7 20 55
0 40 -4 55 -14 55 -8 0 -17 -7 -20 -16z"/>
<path d="M1420 2772 c0 -62 -3 -72 -17 -73 -10 -1 -27 -2 -38 -3 -11 -1 -53
-3 -92 -4 -119 -3 -86 -22 37 -22 l110 0 0 -44 c0 -51 10 -106 19 -106 10 0 0
304 -10 315 -5 5 -9 -20 -9 -63z"/>
<path d="M3460 2754 c-6 -14 -10 -31 -10 -37 0 -7 42 -26 94 -43 l94 -31 12
40 c6 21 10 41 7 43 -4 5 -168 53 -180 54 -4 0 -12 -12 -17 -26z"/>
<path d="M3390 2559 c-17 -31 -11 -45 25 -62 47 -22 51 -22 62 11 9 25 7 28
-34 48 -42 20 -44 21 -53 3z"/>
<path d="M3556 2495 l-59 -33 41 -21 c52 -26 50 -26 63 7 19 47 28 82 21 81
-4 0 -33 -15 -66 -34z"/>
<path d="M3197 2032 c-15 -16 -27 -33 -27 -38 0 -5 19 -29 43 -52 l43 -42 32
33 c18 18 32 36 32 39 0 3 -22 24 -48 47 l-49 40 -26 -27z"/>
<path d="M2542 1684 c-25 -11 -32 -19 -27 -32 3 -9 9 -29 12 -45 3 -15 10 -30
14 -33 7 -4 51 17 87 41 8 6 -32 85 -42 84 -6 0 -26 -7 -44 -15z"/>
<path d="M2910 1620 c-9 -6 -10 -10 -3 -10 6 0 15 5 18 10 8 12 4 12 -15 0z"/>
</g>
</svg>
