<?xml version="1.0" standalone="no"?>
<!DOCTYPE svg PUBLIC "-//W3C//DTD SVG 20010904//EN"
 "http://www.w3.org/TR/2001/REC-SVG-20010904/DTD/svg10.dtd">
<svg version="1.0" xmlns="http://www.w3.org/2000/svg"
 width="700.000000pt" height="700.000000pt" viewBox="0 0 700.000000 700.000000"
 preserveAspectRatio="xMidYMid meet">
<metadata>
Created by potrace 1.14, written by Peter Selinger 2001-2017
</metadata>
<g transform="translate(0.000000,700.000000) scale(0.100000,-0.100000)"
fill="#000000" stroke="none">
<path d="M3299 6996 c-2 -2 -42 -6 -89 -10 -128 -10 -215 -20 -215 -26 0 -1
-20 -3 -45 -4 -25 -2 -58 -7 -75 -10 -16 -4 -48 -11 -70 -16 -190 -43 -275
-64 -302 -75 -18 -8 -33 -12 -33 -10 0 2 -16 -3 -35 -11 -19 -8 -35 -11 -35
-8 0 4 -6 2 -12 -3 -17 -12 -171 -68 -180 -65 -5 1 -8 -3 -8 -8 0 -6 -6 -10
-12 -9 -14 2 -54 -15 -193 -82 -49 -24 -93 -42 -97 -41 -5 1 -8 -2 -8 -7 0 -5
-8 -11 -17 -14 -10 -3 -49 -24 -88 -46 -38 -22 -83 -48 -100 -57 -16 -9 -32
-20 -35 -23 -3 -3 -17 -12 -32 -20 -15 -8 -37 -23 -48 -33 -11 -10 -20 -16
-20 -13 0 7 -114 -77 -118 -87 -2 -5 -8 -8 -13 -8 -23 0 -267 -209 -398 -341
-74 -74 -100 -103 -243 -266 -14 -17 -24 -34 -21 -37 4 -3 2 -6 -4 -6 -5 0
-25 -21 -43 -47 -19 -27 -37 -50 -40 -53 -11 -8 -175 -261 -205 -315 -65 -116
-152 -294 -147 -299 3 -3 0 -6 -6 -6 -7 0 -11 -3 -10 -7 1 -5 -8 -30 -20 -57
-12 -27 -22 -52 -22 -57 0 -5 -4 -9 -8 -9 -4 0 -8 -8 -9 -17 -1 -10 -13 -49
-28 -88 -27 -69 -91 -268 -100 -309 -2 -12 -6 -30 -9 -41 -11 -42 -55 -252
-61 -290 -29 -175 -40 -334 -39 -580 0 -197 5 -310 19 -400 3 -16 7 -48 9 -70
7 -56 15 -111 27 -172 6 -29 11 -56 12 -60 1 -8 73 -286 81 -313 10 -34 38
-116 46 -135 13 -29 34 -99 31 -104 -2 -2 1 -7 6 -10 5 -3 17 -28 27 -56 35
-95 173 -368 240 -473 14 -23 26 -46 26 -52 0 -5 5 -10 10 -10 6 0 10 -6 10
-14 0 -8 3 -16 8 -18 8 -4 52 -65 52 -73 0 -8 63 -89 73 -93 4 -2 7 -9 7 -16
0 -7 11 -23 25 -36 14 -13 25 -29 25 -36 0 -7 4 -14 9 -16 4 -2 35 -34 67 -73
93 -111 227 -251 330 -345 117 -106 365 -300 384 -300 6 0 10 -4 10 -10 0 -5
6 -10 13 -10 8 0 22 -9 32 -20 10 -11 22 -20 26 -20 5 0 41 -21 80 -46 40 -25
79 -48 88 -52 9 -3 33 -16 53 -29 21 -13 38 -20 38 -16 0 5 4 3 8 -3 8 -13
144 -80 155 -76 4 1 7 -2 7 -6 0 -4 17 -14 38 -21 20 -8 57 -23 82 -34 25 -10
59 -25 75 -32 30 -13 181 -65 200 -70 6 -1 17 -5 25 -8 21 -8 83 -27 106 -32
10 -2 57 -14 104 -25 155 -36 262 -57 345 -66 17 -1 46 -5 65 -8 182 -28 696
-28 846 0 16 3 47 7 69 9 22 1 40 4 40 5 0 2 34 9 75 15 61 8 103 16 165 32
33 8 71 17 85 20 83 15 441 134 465 155 5 4 14 8 21 8 7 0 66 26 131 57 65 31
121 56 126 55 4 -1 7 2 7 8 0 5 4 10 8 10 9 0 116 58 177 96 22 13 47 27 55
31 8 4 17 9 20 12 3 3 44 32 92 64 48 32 94 65 102 72 8 8 17 15 21 15 8 0
151 116 234 189 135 119 301 293 411 431 58 72 212 286 223 310 4 8 15 27 25
42 67 103 213 383 204 392 -3 3 0 6 6 6 7 0 12 6 12 13 0 8 6 27 14 43 15 29
38 87 37 91 -1 2 10 27 22 55 13 29 27 67 32 83 10 35 10 36 18 55 10 25 58
184 63 205 2 11 15 70 28 130 34 151 39 175 40 212 1 18 4 33 7 33 3 0 6 19 8
43 4 54 9 102 11 102 12 0 19 524 9 640 -7 80 -15 156 -24 235 -5 42 -15 104
-21 130 -3 14 -8 36 -11 50 -28 153 -105 428 -151 540 -12 29 -25 63 -26 70
-1 3 -7 14 -13 25 -6 11 -12 23 -12 27 -18 90 -281 566 -383 693 -4 6 -33 44
-64 85 -149 197 -353 411 -534 560 -30 25 -57 48 -60 51 -3 3 -52 40 -110 82
-58 42 -110 81 -117 87 -7 5 -15 10 -19 10 -3 0 -23 14 -44 30 -21 17 -40 30
-43 30 -3 0 -36 19 -73 42 -64 38 -332 179 -344 180 -3 0 -30 12 -60 25 -30
14 -62 26 -71 28 -9 2 -25 8 -35 13 -29 15 -113 47 -164 62 -25 7 -52 15 -60
18 -97 34 -373 101 -485 117 -22 3 -51 7 -65 9 -14 2 -52 7 -85 11 -33 3 -73
8 -90 11 -35 5 -521 14 -526 10z"/>
</g>
</svg>
